<mxfile host="app.diagrams.net" agent="Mozilla/5.0 (Windows NT 10.0; Win64; x64) AppleWebKit/537.36 (KHTML, like Gecko) Chrome/130.0.0.0 Safari/537.36" version="24.8.3">
  <diagram name="Page-1" id="-WWlSUmT0x6S2lAoXoHf">
    <mxGraphModel>
      <root>
        <mxCell id="0" />
        <mxCell id="1" parent="0" />
        <mxCell id="2" value="Domaine technique" style="whiteSpace=wrap;strokeWidth=2;" vertex="1" parent="1">
          <mxGeometry x="227" y="198" width="415" height="133" as="geometry" />
        </mxCell>
        <mxCell id="3" value="Domaine métier" style="whiteSpace=wrap;strokeWidth=2;" vertex="1" parent="1">
          <mxGeometry x="8" y="8" width="1015" height="170" as="geometry" />
        </mxCell>
        <mxCell id="4" value="Client" style="rounded=1;arcSize=40;strokeWidth=2" vertex="1" parent="1">
          <mxGeometry x="33" y="72" width="73" height="49" as="geometry" />
        </mxCell>
        <mxCell id="5" value="Service métier" style="rounded=1;arcSize=40;strokeWidth=2" vertex="1" parent="1">
          <mxGeometry x="252" y="45" width="135" height="49" as="geometry" />
        </mxCell>
        <mxCell id="6" value="Base de données" style="rounded=1;arcSize=40;strokeWidth=2" vertex="1" parent="1">
          <mxGeometry x="849" y="60" width="149" height="49" as="geometry" />
        </mxCell>
        <mxCell id="7" value="Frontend" style="rounded=1;arcSize=40;strokeWidth=2" vertex="1" parent="1">
          <mxGeometry x="272" y="241" width="95" height="49" as="geometry" />
        </mxCell>
        <mxCell id="8" value="Backend" style="rounded=1;arcSize=40;strokeWidth=2" vertex="1" parent="1">
          <mxGeometry x="527" y="241" width="90" height="49" as="geometry" />
        </mxCell>
        <mxCell id="9" value="Demande" style="curved=1;startArrow=none;endArrow=block;exitX=1;exitY=0.16;entryX=0;entryY=0.26;" edge="1" parent="1" source="4" target="5">
          <mxGeometry relative="1" as="geometry">
            <Array as="points">
              <mxPoint x="166" y="53" />
              <mxPoint x="227" y="53" />
            </Array>
          </mxGeometry>
        </mxCell>
        <mxCell id="10" value="Réponse" style="curved=1;startArrow=none;endArrow=block;exitX=0;exitY=0.89;entryX=1;entryY=0.49;" edge="1" parent="1" source="5" target="4">
          <mxGeometry relative="1" as="geometry">
            <Array as="points">
              <mxPoint x="227" y="96" />
            </Array>
          </mxGeometry>
        </mxCell>
        <mxCell id="11" value="Consulte" style="curved=1;startArrow=none;endArrow=block;exitX=1;exitY=0.49;entryX=0;entryY=0.37;" edge="1" parent="1" source="5" target="6">
          <mxGeometry relative="1" as="geometry">
            <Array as="points">
              <mxPoint x="745" y="69" />
            </Array>
          </mxGeometry>
        </mxCell>
        <mxCell id="12" value="Requête API" style="curved=1;startArrow=none;endArrow=block;exitX=0.99;exitY=0.34;entryX=0;entryY=0.32;" edge="1" parent="1" source="7" target="8">
          <mxGeometry relative="1" as="geometry">
            <Array as="points">
              <mxPoint x="457" y="244" />
            </Array>
          </mxGeometry>
        </mxCell>
        <mxCell id="13" value="Réponse API" style="curved=1;startArrow=none;endArrow=block;exitX=0;exitY=0.66;entryX=0.99;entryY=0.64;" edge="1" parent="1" source="8" target="7">
          <mxGeometry relative="1" as="geometry">
            <Array as="points">
              <mxPoint x="457" y="286" />
            </Array>
          </mxGeometry>
        </mxCell>
        <mxCell id="14" value="Manipule les données" style="curved=1;startArrow=none;endArrow=block;exitX=0.99;exitY=0.49;entryX=0;entryY=0.92;" edge="1" parent="1" source="8" target="6">
          <mxGeometry relative="1" as="geometry">
            <Array as="points">
              <mxPoint x="642" y="265" />
              <mxPoint x="745" y="133" />
            </Array>
          </mxGeometry>
        </mxCell>
        <mxCell id="15" value="Utilise" style="curved=1;startArrow=none;endArrow=block;exitX=1;exitY=0.82;entryX=0.31;entryY=-0.01;" edge="1" parent="1" source="4" target="7">
          <mxGeometry relative="1" as="geometry">
            <Array as="points">
              <mxPoint x="166" y="139" />
              <mxPoint x="227" y="139" />
            </Array>
          </mxGeometry>
        </mxCell>
      </root>
    </mxGraphModel>
  </diagram>
</mxfile>
